<?xml version="1.0" encoding="utf-8"?>
<svg viewBox="0 102.001 111 19.997" width="111" height="19.997" xmlns="http://www.w3.org/2000/svg">
  <g fill="#fff">
    <path d="M53.91 113.968c-.392 2.26-.813 4.548-1.204 6.807-.06.302-.12.512-.51.512-1.594 0-3.188 0-4.75-.03-.06 0-.12-.03-.27-.06.66-3.886 1.26-7.8 2.313-11.627-.06.15-.15.27-.21.422-1.624 3.554-3.278 7.078-4.9 10.663-.212.452-.482.632-.963.632-1.173-.03-2.315 0-3.548 0-.422-3.885-.843-7.74-1.264-11.596h-.09c-.09.724-.15 1.447-.27 2.17-.45 3.012-.902 6.024-1.383 9.006-.03.18-.3.36-.48.42-.242.062-.512.032-.783.032H15.848c.27-1.567.54-3.103.812-4.67-.09.06-.15.09-.15.15-1.023 2.29-2.887 3.556-5.232 4.218-2.555.723-5.08.844-7.606-.06C1.9 120.324.606 119.21.185 117.31c-.12-.51-.12-1.023-.18-1.565-.03-.27.09-.39.36-.39 1.714 0 3.428 0 5.17.03.122 0 .332.18.362.33.24.904.872 1.506 1.804 1.506.752 0 1.504-.06 2.226-.21.3-.06.63-.3.84-.542.512-.542.392-1.235-.3-1.566-.45-.21-.9-.362-1.382-.512-1.503-.482-3.007-.874-4.48-1.416-1.413-.512-2.585-1.416-2.856-3.012-.36-1.988.24-3.765 1.594-5.24 1.352-1.477 3.186-2.11 5.11-2.5 1.985-.423 3.97-.212 5.893.39 2.525.814 3.457 2.892 3.397 5.06 0 .06-.03.12-.06.242H12.39c-.15 0-.39-.15-.42-.24-.24-.935-.902-1.266-1.744-1.266-.57 0-1.142.06-1.713.15-.542.09-.842.482-.872.964-.03.512.27.843.722.994 1.473.512 2.977.994 4.45 1.476.48.15.992.33 1.473.512 1.262.422 2.134 1.235 2.495 2.56.09.27.18.512.33.934.18-1.024.362-1.928.512-2.83.45-2.622.932-5.242 1.383-7.863.06-.27.15-.452.48-.452h14.522c.06 0 .12.03.21.06-.24 1.326-.45 2.62-.69 3.916-.06.36-.332.36-.603.36H24.387c-.15.874-.3 1.748-.482 2.65h7.666c-.27 1.447-.51 2.863-.75 4.34h-7.095c-.42 0-.632.15-.692.57-.12.784-.24 1.537-.39 2.41h8.688c.723 0 .753 0 .873-.692.54-3.072 1.082-6.115 1.623-9.187.24-1.445.51-2.89.782-4.366h6.735c.42 0 .6.09.66.572.27 2.68.572 5.36.872 8.072.09.904.21 1.808.33 2.892.15-.27.272-.452.332-.633 1.533-3.373 3.096-6.747 4.63-10.12.24-.542.57-.783 1.172-.753 1.983.03 3.968.03 5.952.03h.57c-.45 2.53-.87 5-1.322 7.47.03 0 .03 0 .06.03.09-.24.21-.482.3-.693 1.594-3.975 4.45-6.415 8.69-7.168 2.164-.39 4.3-.15 6.313.814 2.194 1.024 3.126 2.86 3.277 5.18.03.272.03.512.06.784 0 .03.03.03.09.09.09-.21.18-.392.27-.572 1.895-3.796 4.96-5.874 9.14-6.356 1.984-.24 3.908-.03 5.712.874 2.225 1.114 3.367 3.012 3.668 5.452.06.542.09 1.054.21 1.626.06-.18.15-.33.21-.512 1.564-3.886 4.27-6.446 8.45-7.29 2.163-.42 4.298-.39 6.342.543 2.165.964 3.307 2.68 3.578 5 .03.33.06.693.09 1.054-.12.03-.21.03-.33.03h-5.05c-.212 0-.392 0-.482-.302-.782-2.2-3.127-2.77-4.96-1.235-.873.753-1.354 1.747-1.775 2.8-.51 1.297-.69 2.652-.6 4.038.09 1.687.96 2.65 2.645 2.802 1.473.15 2.735-.33 3.667-1.536.12-.15.21-.332.36-.573H101.8c.12-.722.24-1.385.33-2.048.09-.542.182-1.054.272-1.596.03-.212.09-.393.39-.393 2.616 0 5.232 0 7.847.03 0 0 .03 0 .12.06-.06.483-.15 1.025-.24 1.537-.482 2.68-.963 5.36-1.444 8.072-.06.392-.21.573-.63.542-1.084-.03-2.166 0-3.308 0v-1.686c-.18.12-.3.18-.39.24-1.745 1.477-3.79 1.958-6.014 1.898-1.293-.06-2.525-.3-3.668-.934-2.134-1.174-3.187-3.012-3.397-5.39-.03-.453-.06-.905-.18-1.417-.092.24-.212.45-.302.692-1.503 3.404-3.938 5.723-7.576 6.627-2.465.63-4.96.66-7.336-.423-2.254-1.024-3.457-2.8-3.848-5.21 0-.09 0-.152-.03-.242-.03-.15-.06-.33-.12-.542-.09.12-.15.21-.18.3-1.654 3.947-4.63 6.025-8.84 6.477-2.314.24-4.48-.15-6.433-1.386-1.894-1.204-2.676-3.072-2.856-5.21-.03-.242-.03-.452-.03-.693 0-.15-.03-.3-.06-.42.06-.212.03-.242.03-.242zm13.648-4.187c-.03-.3-.09-.57-.12-.842-.12-1.054-.812-1.868-1.834-2.11-1.624-.36-3.127.242-4.03 1.748-1.14 1.898-1.622 3.946-1.442 6.145.15 1.778 1.503 2.772 3.277 2.5 1.592-.24 2.585-1.174 3.126-2.62.15-.42.36-.512.78-.512 1.535.03 3.038 0 4.57.03.392 0 .572-.12.572-.51 0-.423.06-.815.15-1.206.15-.844.3-1.717.482-2.59-1.864-.03-3.698-.03-5.532-.03zm15.633-3.04c-1.14 0-1.983.42-2.765 1.354-1.804 2.2-2.225 4.67-1.593 7.38.24.964.902 1.536 1.864 1.717 1.743.302 3.126-.33 4.058-1.836 1.173-1.868 1.594-3.916 1.293-6.115-.18-1.597-1.263-2.5-2.856-2.5z"/>
  </g>
</svg>